{"glyphs":{"0":{"ha":543,"x_min":0,"x_max":502,"o":"m 342 121 l 345 123 l 347 126 l 347 480 l 343 483 l 340 487 l 160 487 l 157 484 l 155 481 l 155 125 l 157 123 l 159 121 l 342 121 m 71 -34 l 34 0 l 0 37 l 0 570 l 34 605 l 71 642 l 430 642 l 467 606 l 502 570 l 502 37 l 465 0 l 430 -34 l 71 -34 z "},"1":{"ha":195,"x_min":0,"x_max":155,"o":"m 0 -34 l 0 642 l 155 642 l 155 -34 l 0 -34 z "},"2":{"ha":543,"x_min":0,"x_max":502,"o":"m 0 -34 l 0 309 l 34 345 l 71 381 l 347 381 l 347 480 l 343 483 l 340 487 l 0 487 l 0 642 l 430 642 l 467 606 l 502 570 l 502 227 l 160 227 l 157 224 l 155 221 l 155 121 l 502 121 l 502 -34 l 0 -34 z "},"3":{"ha":543,"x_min":0,"x_max":502,"o":"m 502 37 l 465 0 l 430 -34 l 0 -34 l 0 121 l 342 121 l 345 123 l 347 126 l 347 220 l 343 222 l 340 227 l 0 227 l 0 381 l 342 381 l 345 384 l 347 387 l 347 480 l 343 483 l 340 487 l 0 487 l 0 642 l 430 642 l 467 606 l 502 570 l 502 37 z "},"4":{"ha":543,"x_min":0,"x_max":502,"o":"m 347 -34 l 347 227 l 71 227 l 34 260 l 0 297 l 0 642 l 155 642 l 155 385 l 157 384 l 159 381 l 347 381 l 347 642 l 502 642 l 502 -34 l 347 -34 z "},"5":{"ha":543,"x_min":0,"x_max":502,"o":"m 0 -34 l 0 121 l 342 121 l 345 123 l 347 126 l 347 220 l 343 222 l 340 227 l 0 227 l 0 642 l 502 642 l 502 487 l 155 487 l 155 381 l 430 381 l 467 346 l 502 309 l 502 37 l 465 0 l 430 -34 l 0 -34 z "},"6":{"ha":543,"x_min":0,"x_max":502,"o":"m 342 121 l 345 123 l 347 126 l 347 220 l 343 222 l 340 227 l 155 227 l 155 125 l 157 123 l 159 121 l 342 121 m 71 -34 l 34 0 l 0 37 l 0 570 l 34 605 l 71 642 l 502 642 l 502 487 l 160 487 l 157 484 l 155 481 l 155 381 l 430 381 l 467 346 l 502 309 l 502 37 l 465 0 l 430 -34 l 71 -34 z "},"7":{"ha":543,"x_min":0,"x_max":502,"o":"m 347 -34 l 347 487 l 0 487 l 0 642 l 502 642 l 502 -34 l 347 -34 z "},"8":{"ha":543,"x_min":0,"x_max":502,"o":"m 342 121 l 345 123 l 347 126 l 347 220 l 343 222 l 340 227 l 160 227 l 157 224 l 155 221 l 155 125 l 157 123 l 159 121 l 342 121 m 342 381 l 345 384 l 347 387 l 347 480 l 343 483 l 340 487 l 160 487 l 157 484 l 155 481 l 155 385 l 157 384 l 159 381 l 342 381 m 502 37 l 465 0 l 430 -34 l 71 -34 l 34 0 l 0 37 l 0 570 l 34 605 l 71 642 l 430 642 l 467 606 l 502 570 l 502 37 z "},"9":{"ha":543,"x_min":0,"x_max":502,"o":"m 347 381 l 347 480 l 343 483 l 340 487 l 160 487 l 157 484 l 155 481 l 155 385 l 157 384 l 159 381 l 347 381 m 347 -34 l 347 227 l 71 227 l 34 260 l 0 297 l 0 570 l 34 605 l 71 642 l 430 642 l 467 606 l 502 570 l 502 -34 l 347 -34 z "}," ":{"ha":174,"x_min":0,"x_max":0,"o":""},"!":{"ha":195,"x_min":0,"x_max":155,"o":"m 0 -34 l 0 121 l 155 121 l 155 -34 l 0 -34 m 0 140 l 0 642 l 155 642 l 155 140 l 0 140 z "},"\"":{"ha":369,"x_min":0,"x_max":328,"o":"m 0 313 l 0 555 l 155 555 l 155 313 l 0 313 m 174 313 l 174 555 l 328 555 l 328 313 l 174 313 z "},"#":{"ha":543,"x_min":0,"x_max":502,"o":"m 260 294 l 260 313 l 241 313 l 241 294 l 260 294 m 87 -34 l 87 140 l 0 140 l 0 294 l 87 294 l 87 313 l 0 313 l 0 468 l 87 468 l 87 642 l 241 642 l 241 468 l 260 468 l 260 642 l 415 642 l 415 468 l 502 468 l 502 313 l 415 313 l 415 294 l 502 294 l 502 140 l 415 140 l 415 -34 l 260 -34 l 260 140 l 241 140 l 241 -34 l 87 -34 z "},"$":{"ha":543,"x_min":0,"x_max":502,"o":"m 342 121 l 345 123 l 347 126 l 347 220 l 343 222 l 340 227 l 328 227 l 328 121 l 342 121 m 174 381 l 174 487 l 160 487 l 157 484 l 155 481 l 155 385 l 157 384 l 159 381 l 174 381 m 174 -121 l 174 -34 l 0 -34 l 0 121 l 174 121 l 174 227 l 71 227 l 34 260 l 0 297 l 0 570 l 34 605 l 71 642 l 174 642 l 174 728 l 328 728 l 328 642 l 502 642 l 502 487 l 328 487 l 328 381 l 430 381 l 467 346 l 502 309 l 502 37 l 465 0 l 430 -34 l 328 -34 l 328 -121 l 174 -121 z "},"%":{"ha":589,"x_min":0,"x_max":548,"o":"m 370 -34 l 370 121 l 525 121 l 525 -34 l 370 -34 m 23 487 l 23 642 l 178 642 l 178 487 l 23 487 m 0 -34 l 362 642 l 548 642 l 186 -34 l 0 -34 z "},"&":{"ha":369,"x_min":0,"x_max":328,"o":"m 87 53 l 87 140 l 0 140 l 0 294 l 87 294 l 87 381 l 241 381 l 241 294 l 328 294 l 328 140 l 241 140 l 241 53 l 87 53 z "},"'":{"ha":195,"x_min":0,"x_max":155,"o":"m 0 313 l 0 555 l 155 555 l 155 313 l 0 313 z "},"(":{"ha":369,"x_min":0,"x_max":328,"o":"m 71 -208 l 34 -171 l 0 -136 l 0 743 l 34 779 l 71 815 l 328 815 l 328 661 l 160 661 l 157 658 l 155 655 l 155 -47 l 157 -50 l 160 -53 l 328 -53 l 328 -208 l 71 -208 z "},")":{"ha":369,"x_min":0,"x_max":328,"o":"m 0 -208 l 0 -53 l 167 -53 l 170 -49 l 174 -46 l 174 654 l 170 656 l 167 661 l 0 661 l 0 815 l 256 815 l 293 780 l 328 743 l 328 -136 l 293 -172 l 256 -208 l 0 -208 z "},"*":{"ha":369,"x_min":0,"x_max":328,"o":"m 87 227 l 87 313 l 0 313 l 0 468 l 87 468 l 87 555 l 241 555 l 241 468 l 328 468 l 328 313 l 241 313 l 241 227 l 87 227 z "},"+":{"ha":543,"x_min":0,"x_max":502,"o":"m 174 -34 l 174 140 l 0 140 l 0 294 l 174 294 l 174 468 l 328 468 l 328 294 l 502 294 l 502 140 l 328 140 l 328 -34 l 174 -34 z "},",":{"ha":195,"x_min":0,"x_max":155,"o":"m 0 -121 l 0 121 l 155 121 l 155 -121 l 0 -121 z "},"-":{"ha":543,"x_min":0,"x_max":502,"o":"m 0 140 l 0 294 l 502 294 l 502 140 l 0 140 z "},".":{"ha":195,"x_min":0,"x_max":155,"o":"m 0 -34 l 0 121 l 155 121 l 155 -34 l 0 -34 z "},"/":{"ha":589,"x_min":0,"x_max":548,"o":"m 0 -34 l 362 642 l 548 642 l 186 -34 l 0 -34 z "},":":{"ha":195,"x_min":0,"x_max":155,"o":"m 0 53 l 0 208 l 155 208 l 155 53 l 0 53 m 0 227 l 0 381 l 155 381 l 155 227 l 0 227 z "},";":{"ha":195,"x_min":0,"x_max":155,"o":"m 0 -121 l 0 121 l 155 121 l 155 -121 l 0 -121 m 0 140 l 0 294 l 155 294 l 155 140 l 0 140 z "},"<":{"ha":585,"x_min":0,"x_max":544,"o":"m 544 -54 l 0 217 l 544 488 l 544 327 l 326 217 l 544 107 l 544 -54 z "},"=":{"ha":543,"x_min":0,"x_max":502,"o":"m 0 53 l 0 208 l 502 208 l 502 53 l 0 53 m 0 227 l 0 381 l 502 381 l 502 227 l 0 227 z "},">":{"ha":585,"x_min":0,"x_max":544,"o":"m 0 107 l 218 217 l 0 327 l 0 488 l 544 217 l 0 -54 l 0 107 z "},"?":{"ha":543,"x_min":0,"x_max":502,"o":"m 174 -34 l 174 121 l 328 121 l 328 -34 l 174 -34 m 174 140 l 174 309 l 208 345 l 244 381 l 342 381 l 345 384 l 347 387 l 347 480 l 343 483 l 340 487 l 160 487 l 157 484 l 155 481 l 155 400 l 0 400 l 0 570 l 34 605 l 71 642 l 430 642 l 467 606 l 502 570 l 502 297 l 465 260 l 430 227 l 334 227 l 331 224 l 328 221 l 328 140 l 174 140 z "},"@":{"ha":543,"x_min":0,"x_max":502,"o":"m 71 -34 l 34 0 l 0 37 l 0 570 l 34 605 l 71 642 l 430 642 l 467 606 l 502 570 l 502 210 l 465 174 l 430 140 l 244 140 l 208 174 l 174 210 l 174 468 l 328 468 l 328 298 l 331 297 l 332 294 l 342 294 l 345 297 l 347 300 l 347 480 l 343 483 l 340 487 l 160 487 l 157 484 l 155 481 l 155 125 l 157 123 l 159 121 l 502 121 l 502 -34 l 71 -34 z "},"A":{"ha":543,"x_min":0,"x_max":502,"o":"m 347 381 l 347 480 l 343 483 l 340 487 l 160 487 l 157 484 l 155 481 l 155 381 l 347 381 m 0 -34 l 0 570 l 34 605 l 71 642 l 430 642 l 467 606 l 502 570 l 502 -34 l 347 -34 l 347 227 l 155 227 l 155 -34 l 0 -34 z "},"B":{"ha":543,"x_min":0,"x_max":502,"o":"m 342 121 l 345 123 l 347 126 l 347 220 l 343 222 l 340 227 l 155 227 l 155 121 l 342 121 m 342 381 l 345 384 l 347 387 l 347 480 l 343 483 l 340 487 l 155 487 l 155 381 l 342 381 m 502 37 l 465 0 l 430 -34 l 0 -34 l 0 642 l 430 642 l 467 606 l 502 570 l 502 37 z "},"C":{"ha":543,"x_min":0,"x_max":502,"o":"m 71 -34 l 34 0 l 0 37 l 0 570 l 34 605 l 71 642 l 502 642 l 502 487 l 160 487 l 157 484 l 155 481 l 155 125 l 157 123 l 159 121 l 502 121 l 502 -34 l 71 -34 z "},"D":{"ha":543,"x_min":0,"x_max":502,"o":"m 342 121 l 345 123 l 347 126 l 347 480 l 343 483 l 340 487 l 155 487 l 155 121 l 342 121 m 0 -34 l 0 642 l 430 642 l 467 606 l 502 570 l 502 37 l 465 0 l 430 -34 l 0 -34 z "},"E":{"ha":543,"x_min":0,"x_max":502,"o":"m 0 -34 l 0 642 l 502 642 l 502 487 l 155 487 l 155 381 l 502 381 l 502 227 l 155 227 l 155 121 l 502 121 l 502 -34 l 0 -34 z "},"F":{"ha":543,"x_min":0,"x_max":502,"o":"m 0 -34 l 0 642 l 502 642 l 502 487 l 155 487 l 155 381 l 502 381 l 502 227 l 155 227 l 155 -34 l 0 -34 z "},"G":{"ha":543,"x_min":0,"x_max":502,"o":"m 71 -34 l 34 0 l 0 37 l 0 570 l 34 605 l 71 642 l 502 642 l 502 487 l 160 487 l 157 484 l 155 481 l 155 125 l 157 123 l 159 121 l 342 121 l 345 123 l 347 126 l 347 220 l 343 222 l 340 227 l 198 227 l 198 381 l 430 381 l 467 346 l 502 309 l 502 37 l 465 0 l 430 -34 l 71 -34 z "},"H":{"ha":543,"x_min":0,"x_max":502,"o":"m 0 -34 l 0 642 l 155 642 l 155 381 l 347 381 l 347 642 l 502 642 l 502 -34 l 347 -34 l 347 227 l 155 227 l 155 -34 l 0 -34 z "},"I":{"ha":195,"x_min":0,"x_max":155,"o":"m 0 -34 l 0 642 l 155 642 l 155 -34 l 0 -34 z "},"J":{"ha":543,"x_min":0,"x_max":502,"o":"m 71 -34 l 34 0 l 0 37 l 0 294 l 155 294 l 155 125 l 157 123 l 159 121 l 342 121 l 345 123 l 347 126 l 347 642 l 502 642 l 502 37 l 465 0 l 430 -34 l 71 -34 z "},"K":{"ha":543,"x_min":0,"x_max":537,"o":"m 155 206 l 155 -34 l 0 -34 l 0 642 l 155 642 l 155 401 l 343 642 l 537 642 l 273 304 l 537 -34 l 343 -34 l 155 206 z "},"L":{"ha":543,"x_min":0,"x_max":502,"o":"m 0 -34 l 0 642 l 155 642 l 155 121 l 502 121 l 502 -34 l 0 -34 z "},"M":{"ha":716,"x_min":0,"x_max":675,"o":"m 604 642 l 640 606 l 675 570 l 675 -34 l 521 -34 l 521 480 l 517 483 l 514 487 l 420 487 l 418 484 l 415 481 l 415 -34 l 260 -34 l 260 480 l 256 483 l 254 487 l 160 487 l 157 484 l 155 481 l 155 -34 l 0 -34 l 0 570 l 34 605 l 71 642 l 604 642 z "},"N":{"ha":543,"x_min":0,"x_max":502,"o":"m 0 -34 l 0 570 l 34 605 l 71 642 l 430 642 l 467 606 l 502 570 l 502 -34 l 347 -34 l 347 480 l 343 483 l 340 487 l 160 487 l 157 484 l 155 481 l 155 -34 l 0 -34 z "},"O":{"ha":543,"x_min":0,"x_max":502,"o":"m 342 121 l 345 123 l 347 126 l 347 480 l 343 483 l 340 487 l 160 487 l 157 484 l 155 481 l 155 125 l 157 123 l 159 121 l 342 121 m 71 -34 l 34 0 l 0 37 l 0 570 l 34 605 l 71 642 l 430 642 l 467 606 l 502 570 l 502 37 l 465 0 l 430 -34 l 71 -34 z "},"P":{"ha":543,"x_min":0,"x_max":502,"o":"m 342 381 l 345 384 l 347 387 l 347 480 l 343 483 l 340 487 l 155 487 l 155 381 l 342 381 m 0 -34 l 0 642 l 430 642 l 467 606 l 502 570 l 502 297 l 465 260 l 430 227 l 155 227 l 155 -34 l 0 -34 z "},"Q":{"ha":543,"x_min":0,"x_max":502,"o":"m 174 -34 l 71 -34 l 34 0 l 0 37 l 0 570 l 34 605 l 71 642 l 430 642 l 467 606 l 502 570 l 502 37 l 465 0 l 430 -34 l 328 -34 l 328 -121 l 174 -121 l 174 -34 m 174 121 l 328 121 l 342 121 l 345 123 l 347 126 l 347 480 l 343 483 l 340 487 l 160 487 l 157 484 l 155 481 l 155 125 l 157 123 l 159 121 l 174 121 z "},"R":{"ha":543,"x_min":0,"x_max":545,"o":"m 342 381 l 345 384 l 347 387 l 347 480 l 343 483 l 340 487 l 155 487 l 155 381 l 342 381 m 155 174 l 155 -34 l 0 -34 l 0 642 l 430 642 l 467 606 l 502 570 l 502 297 l 465 260 l 430 227 l 307 227 l 545 -34 l 345 -34 l 155 174 z "},"S":{"ha":543,"x_min":0,"x_max":502,"o":"m 0 -34 l 0 121 l 342 121 l 345 123 l 347 126 l 347 220 l 343 222 l 340 227 l 71 227 l 34 260 l 0 297 l 0 570 l 34 605 l 71 642 l 502 642 l 502 487 l 160 487 l 157 484 l 155 481 l 155 385 l 157 384 l 159 381 l 430 381 l 467 346 l 502 309 l 502 37 l 465 0 l 430 -34 l 0 -34 z "},"T":{"ha":543,"x_min":0,"x_max":502,"o":"m 174 -34 l 174 487 l 0 487 l 0 642 l 502 642 l 502 487 l 328 487 l 328 -34 l 174 -34 z "},"U":{"ha":543,"x_min":0,"x_max":502,"o":"m 71 -34 l 34 0 l 0 37 l 0 642 l 155 642 l 155 125 l 157 123 l 159 121 l 342 121 l 345 123 l 347 126 l 347 642 l 502 642 l 502 37 l 465 0 l 430 -34 l 71 -34 z "},"V":{"ha":564,"x_min":0,"x_max":524,"o":"m 0 642 l 157 642 l 262 259 l 366 642 l 524 642 l 331 -34 l 193 -34 l 0 642 z "},"W":{"ha":716,"x_min":0,"x_max":675,"o":"m 71 -34 l 34 0 l 0 37 l 0 642 l 155 642 l 155 125 l 157 123 l 159 121 l 255 121 l 258 123 l 260 126 l 260 642 l 415 642 l 415 125 l 418 123 l 419 121 l 515 121 l 518 123 l 521 126 l 521 642 l 675 642 l 675 37 l 639 0 l 604 -34 l 71 -34 z "},"X":{"ha":543,"x_min":0,"x_max":548,"o":"m 362 304 l 548 -34 l 373 -34 l 274 145 l 175 -34 l 0 -34 l 186 304 l 0 642 l 175 642 l 274 463 l 373 642 l 548 642 l 362 304 z "},"Y":{"ha":543,"x_min":0,"x_max":543,"o":"m 349 252 l 349 -34 l 194 -34 l 194 252 l 0 642 l 172 642 l 271 445 l 370 642 l 543 642 l 349 252 z "},"Z":{"ha":589,"x_min":0,"x_max":548,"o":"m 23 642 l 548 642 l 266 121 l 525 121 l 525 -34 l 0 -34 l 282 487 l 23 487 l 23 642 z "},"[":{"ha":282,"x_min":0,"x_max":241,"o":"m 0 -208 l 0 815 l 241 815 l 241 661 l 155 661 l 155 -53 l 241 -53 l 241 -208 l 0 -208 z "},"\\":{"ha":589,"x_min":0,"x_max":548,"o":"m 362 -34 l 0 642 l 186 642 l 548 -34 l 362 -34 z "},"]":{"ha":282,"x_min":0,"x_max":241,"o":"m 0 -208 l 0 -53 l 87 -53 l 87 661 l 0 661 l 0 815 l 241 815 l 241 -208 l 0 -208 z "},"^":{"ha":369,"x_min":0,"x_max":328,"o":"m 0 313 l 0 555 l 328 555 l 328 313 l 174 313 l 174 400 l 155 400 l 155 313 l 0 313 z "},"_":{"ha":543,"x_min":0,"x_max":502,"o":"m 0 -121 l 0 34 l 502 34 l 502 -121 l 0 -121 z "},"`":{"ha":323,"x_min":0,"x_max":282,"o":"m 0 642 l 161 642 l 282 400 l 121 400 l 0 642 z "},"a":{"ha":543,"x_min":0,"x_max":502,"o":"m 347 121 l 347 140 l 160 140 l 157 137 l 155 134 l 155 125 l 157 123 l 159 121 l 347 121 m 71 -34 l 34 0 l 0 37 l 0 222 l 34 258 l 71 294 l 347 294 l 347 313 l 0 313 l 0 468 l 430 468 l 467 433 l 502 396 l 502 -34 l 71 -34 z "},"b":{"ha":543,"x_min":0,"x_max":502,"o":"m 342 121 l 345 123 l 347 126 l 347 307 l 343 309 l 340 313 l 155 313 l 155 121 l 342 121 m 0 -34 l 0 728 l 155 728 l 155 468 l 430 468 l 467 433 l 502 396 l 502 37 l 465 0 l 430 -34 l 0 -34 z "},"c":{"ha":543,"x_min":0,"x_max":502,"o":"m 71 -34 l 34 0 l 0 37 l 0 396 l 34 431 l 71 468 l 502 468 l 502 313 l 160 313 l 157 311 l 155 308 l 155 125 l 157 123 l 159 121 l 502 121 l 502 -34 l 71 -34 z "},"d":{"ha":543,"x_min":0,"x_max":502,"o":"m 347 121 l 347 313 l 160 313 l 157 311 l 155 308 l 155 125 l 157 123 l 159 121 l 347 121 m 71 -34 l 34 0 l 0 37 l 0 396 l 34 431 l 71 468 l 347 468 l 347 728 l 502 728 l 502 -34 l 71 -34 z "},"e":{"ha":543,"x_min":0,"x_max":502,"o":"m 342 294 l 345 297 l 347 300 l 347 307 l 343 309 l 340 313 l 155 313 l 155 294 l 342 294 m 71 -34 l 34 0 l 0 37 l 0 396 l 34 431 l 71 468 l 430 468 l 467 433 l 502 396 l 502 210 l 465 174 l 430 140 l 155 140 l 155 121 l 502 121 l 502 -34 l 71 -34 z "},"f":{"ha":369,"x_min":0,"x_max":328,"o":"m 0 -34 l 0 656 l 34 692 l 71 728 l 328 728 l 328 574 l 160 574 l 157 571 l 155 568 l 155 468 l 328 468 l 328 313 l 155 313 l 155 -34 l 0 -34 z "},"g":{"ha":543,"x_min":0,"x_max":502,"o":"m 347 121 l 347 307 l 343 309 l 340 313 l 160 313 l 157 311 l 155 308 l 155 125 l 157 123 l 159 121 l 347 121 m 0 -208 l 0 -53 l 340 -53 l 343 -49 l 347 -46 l 347 -34 l 71 -34 l 34 0 l 0 37 l 0 396 l 34 431 l 71 468 l 430 468 l 467 433 l 502 396 l 502 -136 l 467 -172 l 430 -208 l 0 -208 z "},"h":{"ha":543,"x_min":0,"x_max":502,"o":"m 0 -34 l 0 728 l 155 728 l 155 468 l 430 468 l 467 433 l 502 396 l 502 -34 l 347 -34 l 347 307 l 343 309 l 340 313 l 160 313 l 157 311 l 155 308 l 155 -34 l 0 -34 z "},"i":{"ha":195,"x_min":0,"x_max":155,"o":"m 0 -34 l 0 468 l 155 468 l 155 -34 l 0 -34 m 0 487 l 0 642 l 155 642 l 155 487 l 0 487 z "},"j":{"ha":369,"x_min":0,"x_max":328,"o":"m 0 -208 l 0 -53 l 167 -53 l 170 -49 l 174 -46 l 174 468 l 328 468 l 328 -136 l 293 -172 l 256 -208 l 0 -208 m 174 487 l 174 642 l 328 642 l 328 487 l 174 487 z "},"k":{"ha":590,"x_min":0,"x_max":549,"o":"m 155 136 l 155 -34 l 0 -34 l 0 728 l 155 728 l 155 298 l 324 468 l 549 468 l 298 217 l 549 -34 l 324 -34 l 155 136 z "},"l":{"ha":195,"x_min":0,"x_max":155,"o":"m 0 -34 l 0 728 l 155 728 l 155 -34 l 0 -34 z "},"m":{"ha":716,"x_min":0,"x_max":675,"o":"m 604 468 l 640 433 l 675 396 l 675 -34 l 521 -34 l 521 307 l 517 309 l 514 313 l 420 313 l 418 311 l 415 308 l 415 -34 l 260 -34 l 260 307 l 256 309 l 254 313 l 160 313 l 157 311 l 155 308 l 155 -34 l 0 -34 l 0 396 l 34 431 l 71 468 l 604 468 z "},"n":{"ha":543,"x_min":0,"x_max":502,"o":"m 0 -34 l 0 396 l 34 431 l 71 468 l 430 468 l 467 433 l 502 396 l 502 -34 l 347 -34 l 347 307 l 343 309 l 340 313 l 160 313 l 157 311 l 155 308 l 155 -34 l 0 -34 z "},"o":{"ha":543,"x_min":0,"x_max":502,"o":"m 342 121 l 345 123 l 347 126 l 347 307 l 343 309 l 340 313 l 160 313 l 157 311 l 155 308 l 155 125 l 157 123 l 159 121 l 342 121 m 71 -34 l 34 0 l 0 37 l 0 396 l 34 431 l 71 468 l 430 468 l 467 433 l 502 396 l 502 37 l 465 0 l 430 -34 l 71 -34 z "},"p":{"ha":543,"x_min":0,"x_max":502,"o":"m 342 121 l 345 123 l 347 126 l 347 307 l 343 309 l 340 313 l 155 313 l 155 121 l 342 121 m 0 -208 l 0 468 l 430 468 l 467 433 l 502 396 l 502 37 l 465 0 l 430 -34 l 155 -34 l 155 -208 l 0 -208 z "},"q":{"ha":543,"x_min":0,"x_max":502,"o":"m 347 121 l 347 313 l 160 313 l 157 311 l 155 308 l 155 125 l 157 123 l 159 121 l 347 121 m 347 -208 l 347 -34 l 71 -34 l 34 0 l 0 37 l 0 396 l 34 431 l 71 468 l 502 468 l 502 -208 l 347 -208 z "},"r":{"ha":456,"x_min":0,"x_max":415,"o":"m 0 -34 l 0 396 l 34 431 l 71 468 l 343 468 l 380 433 l 415 396 l 415 227 l 260 227 l 260 307 l 256 309 l 254 313 l 160 313 l 157 311 l 155 308 l 155 -34 l 0 -34 z "},"s":{"ha":543,"x_min":0,"x_max":502,"o":"m 0 -34 l 0 121 l 342 121 l 345 123 l 347 126 l 347 133 l 343 136 l 340 140 l 71 140 l 34 174 l 0 210 l 0 396 l 34 431 l 71 468 l 502 468 l 502 313 l 160 313 l 157 311 l 155 308 l 155 298 l 157 297 l 159 294 l 430 294 l 467 259 l 502 222 l 502 37 l 465 0 l 430 -34 l 0 -34 z "},"t":{"ha":369,"x_min":0,"x_max":328,"o":"m 157 -34 l 121 0 l 87 37 l 87 313 l 0 313 l 0 468 l 87 468 l 87 728 l 241 728 l 241 468 l 328 468 l 328 313 l 241 313 l 241 125 l 244 123 l 245 121 l 328 121 l 328 -34 l 157 -34 z "},"u":{"ha":543,"x_min":0,"x_max":502,"o":"m 71 -34 l 34 0 l 0 37 l 0 468 l 155 468 l 155 125 l 157 123 l 159 121 l 342 121 l 345 123 l 347 126 l 347 468 l 502 468 l 502 37 l 465 0 l 430 -34 l 71 -34 z "},"v":{"ha":575,"x_min":0,"x_max":534,"o":"m 0 468 l 171 468 l 267 222 l 363 468 l 534 468 l 334 -34 l 201 -34 l 0 468 z "},"w":{"ha":716,"x_min":0,"x_max":675,"o":"m 71 -34 l 34 0 l 0 37 l 0 468 l 155 468 l 155 125 l 157 123 l 159 121 l 255 121 l 258 123 l 260 126 l 260 468 l 415 468 l 415 125 l 418 123 l 419 121 l 515 121 l 518 123 l 521 126 l 521 468 l 675 468 l 675 37 l 639 0 l 604 -34 l 71 -34 z "},"x":{"ha":610,"x_min":0,"x_max":570,"o":"m 189 217 l 0 468 l 194 468 l 285 346 l 376 468 l 570 468 l 381 217 l 570 -34 l 376 -34 l 285 88 l 194 -34 l 0 -34 l 189 217 z "},"y":{"ha":543,"x_min":0,"x_max":502,"o":"m 0 -208 l 0 -53 l 340 -53 l 343 -49 l 347 -46 l 347 -34 l 71 -34 l 34 0 l 0 37 l 0 468 l 155 468 l 155 125 l 157 123 l 159 121 l 347 121 l 347 468 l 502 468 l 502 -136 l 467 -172 l 430 -208 l 0 -208 z "},"z":{"ha":610,"x_min":0,"x_max":570,"o":"m 34 468 l 570 468 l 309 121 l 536 121 l 536 -34 l 0 -34 l 260 313 l 34 313 l 34 468 z "},"{":{"ha":369,"x_min":0,"x_max":328,"o":"m 157 -208 l 121 -171 l 87 -136 l 87 227 l 0 227 l 0 381 l 87 381 l 87 743 l 121 779 l 157 815 l 328 815 l 328 661 l 247 661 l 244 658 l 241 655 l 241 -47 l 244 -50 l 247 -53 l 328 -53 l 328 -208 l 157 -208 z "},"|":{"ha":195,"x_min":0,"x_max":155,"o":"m 0 -208 l 0 815 l 155 815 l 155 -208 l 0 -208 z "},"}":{"ha":369,"x_min":0,"x_max":328,"o":"m 0 -208 l 0 -53 l 80 -53 l 83 -49 l 87 -46 l 87 654 l 83 656 l 80 661 l 0 661 l 0 815 l 170 815 l 206 780 l 241 743 l 241 381 l 328 381 l 328 227 l 241 227 l 241 -136 l 206 -172 l 170 -208 l 0 -208 z "},"~":{"ha":543,"x_min":0,"x_max":502,"o":"m 0 53 l 0 208 l 168 208 l 171 210 l 174 213 l 174 309 l 208 345 l 244 381 l 502 381 l 502 227 l 334 227 l 331 224 l 328 221 l 328 123 l 292 87 l 256 53 l 0 53 z "},"‘":{"ha":195,"x_min":0,"x_max":155,"o":"m 0 313 l 0 555 l 155 555 l 155 313 l 0 313 z "},"’":{"ha":195,"x_min":0,"x_max":155,"o":"m 0 313 l 0 555 l 155 555 l 155 313 l 0 313 z "},"“":{"ha":369,"x_min":0,"x_max":328,"o":"m 0 313 l 0 555 l 155 555 l 155 313 l 0 313 m 174 313 l 174 555 l 328 555 l 328 313 l 174 313 z "},"”":{"ha":369,"x_min":0,"x_max":328,"o":"m 0 313 l 0 555 l 155 555 l 155 313 l 0 313 m 174 313 l 174 555 l 328 555 l 328 313 l 174 313 z "},"€":{"ha":629,"x_min":0,"x_max":589,"o":"m 589 400 l 434 400 l 434 480 l 430 483 l 427 487 l 247 487 l 244 484 l 241 481 l 241 468 l 415 468 l 415 313 l 241 313 l 241 294 l 415 294 l 415 140 l 241 140 l 241 125 l 244 123 l 245 121 l 427 121 l 430 125 l 434 127 l 434 208 l 589 208 l 589 38 l 553 1 l 517 -34 l 157 -34 l 121 0 l 87 37 l 87 140 l 0 140 l 0 294 l 87 294 l 87 313 l 0 313 l 0 468 l 87 468 l 87 570 l 121 605 l 157 642 l 517 642 l 553 606 l 589 570 l 589 400 z "},"£":{"ha":629,"x_min":0,"x_max":589,"o":"m 248 487 l 245 483 l 241 480 l 241 381 l 415 381 l 415 227 l 241 227 l 241 121 l 589 121 l 589 -34 l 87 -34 l 87 227 l 0 227 l 0 381 l 87 381 l 87 570 l 122 606 l 159 642 l 517 642 l 553 606 l 589 570 l 589 400 l 434 400 l 434 480 l 430 483 l 427 487 l 248 487 z "},"¥":{"ha":583,"x_min":0,"x_max":543,"o":"m 349 9 l 349 -34 l 194 -34 l 194 9 l 20 9 l 20 140 l 194 140 l 194 153 l 20 153 l 20 294 l 174 294 l 0 642 l 172 642 l 271 445 l 370 642 l 543 642 l 369 294 l 522 294 l 522 153 l 349 153 l 349 140 l 522 140 l 522 9 l 349 9 z "}}}
